<svg xmlns="http://www.w3.org/2000/svg" xmlns:xlink="http://www.w3.org/1999/xlink">
    <symbol class="bi bi-paypal" viewBox="0 0 100 100" id="custom-icon-paypal">
        <path d="M 13 85 H 31 L 36 57 C 37 55 38 55 39 55 H 52 C 70 55 80 37 80.5 27 82 12 70 5 62 5 H 26 C 23 5 24 8 23 8 L 11.5 82 C 11.5 83 11 85 13 85"/>
        <path d="M 34.5 95 H 48 C 49 95 50 94 50 92 L 53 73 C 54 70 54 71 56 70 H 63 C 75 70 85 59 87 50 C 89 40 88 33 85 31 C 80 42 80 60 40 60 Z"/>
    </symbol>
    <symbol class="bi bi-petro" viewBox="0 0 27 27" id="custom-icon-petro">
        <path d="M 10.302412,25.260722 H 7.8506364 c 0,0 -0.3475933,-6.80841 -0.4705429,-13.670508 -0.02416,-1.348432 0.2724195,-4.0367626 0.2724195,-4.0367626 0,0 0.4112103,-2.208738 0.9163203,-3.1947384 C 8.9761964,3.5635194 9.5442979,2.8286922 10.228116,2.2536527 10.946162,1.6498304 11.80309,1.1758695 12.704658,0.91632033 13.674556,0.63710005 14.719103,0.64929602 15.726038,0.718197 c 1.025657,0.070182 2.082217,0.20096396 3.021381,0.6191354 0.965323,0.4298189 1.862759,1.0802101 2.550837,1.8821715 0.740564,0.8631344 1.253353,1.9510353 1.560222,3.0461459 0.316931,1.1310159 0.277128,2.310222 0.07429,3.4671579 -0.203658,1.1616413 -0.624849,2.1623543 -1.312566,3.1204423 -0.552099,0.769153 -1.225849,1.507479 -2.030764,2.005998 -0.866675,0.53677 -1.878597,0.959425 -2.897554,0.990617 -2.935459,0.08986 -12.6055956,0.148588 -12.6055956,0.148588 L 4.0615282,13.7448 c 0,0 7.8716548,-0.192028 11.6645098,-0.396247 0.738077,-0.03974 2.080295,-0.767727 2.080295,-0.767727 0,0 1.48741,-1.142165 1.882171,-1.956468 C 20.084724,9.8070463 20.21213,8.8203882 20.059986,7.9249327 19.868891,6.8002283 19.322111,5.6694975 18.499764,4.878787 17.778267,4.1850468 16.767817,3.7471911 15.775569,3.6157508 c -0.96331,-0.1276069 -2.0357,0.00182 -2.872788,0.4953082 -0.784089,0.4622458 -1.310826,1.311246 -1.708814,2.1298257 -0.381746,0.7851736 -0.555789,1.678634 -0.59437,2.5508376 -0.255263,5.7707027 -0.297185,16.4689997 -0.297185,16.4689997 z"/>
        <path d="M 4.1110588,19.98569 16.939543,20.03522 V 18.177815 L 4.0862934,18.450232 Z"/>
    </symbol>
</svg>